
    <svg width="20" height="20" viewBox="0 0 20 20" fill="none" xmlns="http://www.w3.org/2000/svg"><path d="M16.5453 8.54545C16.5453 13.6364 9.99986 18 9.99986 18C9.99986 18 3.45441 13.6364 3.45441 8.54545C3.45441 6.80949 4.14402 5.14463 5.37153 3.91712C6.59904 2.68961 8.2639 2 9.99986 2C11.7358 2 13.4007 2.68961 14.6282 3.91712C15.8557 5.14463 16.5453 6.80949 16.5453 8.54545Z" stroke-linejoin="round" stroke-linecap="round" stroke-width="1.5" stroke="#777d83"></path><path d="M9.99987 10.7272C11.2049 10.7272 12.1817 9.75033 12.1817 8.54534C12.1817 7.34036 11.2049 6.36353 9.99987 6.36353C8.79489 6.36353 7.81805 7.34036 7.81805 8.54534C7.81805 9.75033 8.79489 10.7272 9.99987 10.7272Z" stroke-linejoin="round" stroke-linecap="round" stroke-width="1.5" stroke="#777d83"></path></svg>

