<svg width="24" height="24" viewBox="0 0 24 24" fill="none" xmlns="http://www.w3.org/2000/svg">
<path d="M5.51363 12.9C4.29761 10.8398 3.49309 8.44229 3.16579 5.77307C3.09548 5.19962 3.06032 4.9129 3.12907 4.58708C3.26357 3.94965 3.82163 3.31897 4.43796 3.10789C4.75299 3 5.09522 3 5.77969 3V3C6.35878 3 6.64833 3 6.89957 3.06642C7.4282 3.20615 7.87656 3.55622 8.14033 4.03517C8.2657 4.26281 8.33593 4.54371 8.47638 5.10551L8.53482 5.33929C8.79815 6.39259 8.92981 6.91924 8.92361 7.436C8.9167 8.01222 8.78537 8.58014 8.53861 9.10089C8.31731 9.5679 7.9678 9.98328 7.26879 10.814L5.51363 12.9ZM5.51363 12.9C6.82322 15.1187 8.61007 16.9461 10.7921 18.3M10.7921 18.3C12.9199 19.6203 15.4235 20.4904 18.2267 20.8342C18.8003 20.9045 19.0871 20.9397 19.4129 20.8709C20.0503 20.7364 20.681 20.1784 20.8921 19.562C21 19.247 21 18.8957 21 18.193V18.193C21 17.6321 21 17.3517 20.9336 17.1004C20.7938 16.5718 20.4438 16.1234 19.9648 15.8597C19.7372 15.7343 19.4563 15.6641 18.8945 15.5236L18.5522 15.4381C17.4677 15.1669 16.9254 15.0313 16.3897 15.0428C15.9151 15.0529 15.4461 15.1474 15.0047 15.3219C14.5064 15.5188 14.059 15.8539 13.1641 16.5239L10.7921 18.3ZM20.1 3.9L14.7 9.3M14.7 9.3V4.8M14.7 9.3H19.2" stroke="#FF0000" stroke-width="2" stroke-linecap="round" stroke-linejoin="round"/>
</svg>
